<svg xmlns="http://www.w3.org/2000/svg" viewBox="0 0 64 64">
  <rect width="64" height="64" rx="14" fill="#0A0A0A"/>
  <g transform="translate(12, 8) scale(0.046)">
    <path fill="#FFFFFF" d="M354.404968,621.501831 C337.262756,596.081970 338.245209,569.606018 348.222900,542.420959 C354.722351,524.712708 364.809265,508.647156 371.633301,491.094238 C383.216949,461.298340 391.403503,430.719635 393.020264,398.606323 C394.541931,368.382141 389.605194,339.450470 374.748840,312.847351 C362.912598,291.652313 344.918121,276.877106 323.026367,266.760437 C294.874847,253.750961 265.526672,251.141907 235.227127,256.808044 C203.480469,262.744781 176.434158,277.489838 153.594727,300.154205 C147.932022,305.773499 142.149506,310.920380 133.325363,310.215149 C125.579178,309.596100 120.220116,305.493683 116.933853,298.793762 C113.604370,292.005676 113.856804,284.870300 118.506241,278.943909 C130.999344,263.019592 146.943481,250.970337 164.109772,240.565170 C197.830444,220.125626 234.570435,210.815994 273.858032,213.124451 C314.158051,215.492401 350.228607,229.393570 380.582001,256.442078 C400.277740,273.993347 413.280426,296.136993 422.206116,320.792328 C432.188049,348.365479 434.626587,376.963959 432.936066,405.932190 C431.524323,430.122894 425.974915,453.623199 419.078705,476.822174 C411.882233,501.031158 401.214539,523.710205 389.751495,546.123108 C383.234924,558.864380 379.289551,572.368469 382.440979,587.067017 C384.128296,594.936707 388.366791,600.808044 395.241302,604.648071 C414.040497,615.148987 433.130920,614.468384 452.212067,605.458740 C457.623444,602.903625 462.883484,600.019287 467.878815,596.647217 C478.226654,589.662109 489.164856,591.752258 496.774689,601.964172 C502.985321,610.298462 501.078522,622.726501 491.644867,629.341980 C466.448242,647.011658 438.999268,657.366272 407.622833,652.070251 C386.381622,648.485046 368.229370,638.988525 354.404968,621.501831z"/>
    <path fill="#FFFFFF" d="M426.189087,813.025146 C401.314240,811.630249 377.424622,807.580322 354.453400,799.032532 C336.905151,792.502686 320.316101,784.008057 305.111176,773.054504 C295.787964,766.338013 292.905701,757.044128 296.643066,748.282959 C302.058228,735.588684 315.060699,731.640625 326.799377,739.475281 C340.429718,748.572449 354.438965,756.893433 370.215057,761.683044 C400.511017,770.881042 431.284119,774.670166 462.897522,770.050354 C487.633911,766.435547 510.815918,758.917358 531.291687,744.276550 C537.368713,739.931274 542.773010,734.657349 548.693787,730.078186 C555.187012,725.056274 562.311829,723.894104 569.633545,728.250061 C576.949585,732.602722 580.957336,738.974182 580.071289,747.741821 C579.455811,753.831726 576.247681,758.645264 571.872620,762.733154 C546.382812,786.550293 516.258240,801.234863 482.241516,808.319214 C463.897186,812.139587 445.377533,813.658997 426.189087,813.025146z"/>
    <path fill="#FFFFFF" d="M756.742432,305.840088 C746.688416,312.294739 737.449097,311.644043 728.835693,303.156067 C718.941589,293.406067 708.370056,284.568970 696.677490,277.129333 C681.357666,267.381805 664.632263,260.931458 646.908630,257.167969 C629.987244,253.574814 612.822205,252.876160 595.755127,255.365738 C572.355225,258.779083 550.711060,266.923340 531.970215,281.818970 C521.958923,289.776093 512.279724,289.998901 503.950104,282.480194 C494.214264,273.692108 494.254974,259.874695 504.356842,251.492294 C523.637268,235.493561 545.673340,224.835663 569.896057,218.701828 C603.936279,210.081940 637.964355,210.718613 671.464661,220.904282 C698.012085,228.975952 721.958862,242.334351 742.940308,260.692627 C747.571716,264.744995 752.103699,268.916626 756.570007,273.150909 C766.981934,283.022247 767.121704,295.276031 756.742432,305.840088z"/>
    <path fill="#FFFFFF" d="M293.929840,363.037537 C309.198669,379.435394 310.715851,399.075897 297.490143,415.224548 C288.083282,426.710327 275.794647,432.426178 260.738251,428.859680 C245.785324,425.317719 236.493515,415.735596 231.389191,401.094360 C225.289886,383.599152 238.159378,359.214600 257.928314,353.799866 C268.861084,350.805420 279.389069,352.609100 288.845123,359.230042 C290.481903,360.376099 292.056824,361.610443 293.929840,363.037537z"/>
    <path fill="#FFFFFF" d="M589.532471,422.565247 C572.279724,407.951111 568.108948,389.269287 578.708191,371.728027 C587.205200,357.665863 600.146179,350.655579 616.606750,352.947662 C631.682617,355.046997 642.057495,364.307068 647.121765,378.539886 C652.551636,393.800415 648.924866,407.507111 637.199341,418.633240 C623.085754,432.025360 606.105347,433.326813 589.532471,422.565247z"/>
  </g>
</svg>
