<svg xmlns="http://www.w3.org/2000/svg" viewBox="0 0 64 64">
  <rect width="64" height="64" rx="14" fill="#0A0A0A"/>
  <g transform="translate(8, 4) scale(0.056)">
    <path fill="#FFFFFF" d="M354.4,621.5C337.3,596.1,338.2,569.6,348.2,542.4C354.7,524.7,364.8,508.6,371.6,491.1C383.2,461.3,391.4,430.7,393,398.6C394.5,368.4,389.6,339.5,374.7,312.8C362.9,291.7,344.9,276.9,323,266.8C294.9,253.8,265.5,251.1,235.2,256.8C203.5,262.7,176.4,277.5,153.6,300.2C147.9,305.8,142.1,310.9,133.3,310.2C125.6,309.6,120.2,305.5,116.9,298.8C113.6,292,113.9,284.9,118.5,278.9C131,263,146.9,251,164.1,240.6C197.8,220.1,234.6,210.8,273.9,213.1C314.2,215.5,350.2,229.4,380.6,256.4C400.3,274,413.3,296.1,422.2,320.8C432.2,348.4,434.6,377,432.9,405.9C431.5,430.1,426,453.6,419.1,476.8C411.9,501,401.2,523.7,389.8,546.1C383.2,558.9,379.3,572.4,382.4,587.1C384.1,594.9,388.4,600.8,395.2,604.6C414,615.1,433.1,614.5,452.2,605.5C457.6,602.9,462.9,600,467.9,596.6C478.2,589.7,489.2,591.8,496.8,602C503,610.3,501.1,622.7,491.6,629.3C466.4,647,439,657.4,407.6,652.1C386.4,648.5,368.2,639,354.4,621.5z"/>
    <path fill="#FFFFFF" d="M426.2,813C401.3,811.6,377.4,807.6,354.5,799C336.9,792.5,320.3,784,305.1,773.1C295.8,766.3,292.9,757,296.6,748.3C302.1,735.6,315.1,731.6,326.8,739.5C340.4,748.6,354.4,756.9,370.2,761.7C400.5,770.9,431.3,774.7,462.9,770.1C487.6,766.4,510.8,758.9,531.3,744.3C537.4,739.9,542.8,734.7,548.7,730.1C555.2,725.1,562.3,723.9,569.6,728.3C577,732.6,581,739,580.1,747.7C579.5,753.8,576.2,758.6,571.9,762.7C546.4,786.6,516.3,801.2,482.2,808.3C463.9,812.1,445.4,813.7,426.2,813z"/>
    <path fill="#FFFFFF" d="M756.7,305.8C746.7,312.3,737.4,311.6,728.8,303.2C718.9,293.4,708.4,284.6,696.7,277.1C681.4,267.4,664.6,260.9,646.9,257.2C630,253.6,612.8,252.9,595.8,255.4C572.4,258.8,550.7,266.9,532,281.8C522,289.8,512.3,290,504,282.5C494.2,273.7,494.3,259.9,504.4,251.5C523.6,235.5,545.7,224.8,569.9,218.7C603.9,210.1,638,210.7,671.5,220.9C698,229,722,242.3,742.9,260.7C747.6,264.7,752.1,268.9,756.6,273.2C767,283,767.1,295.3,756.7,305.8z"/>
    <path fill="#FFFFFF" d="M293.9,363C309.2,379.4,310.7,399.1,297.5,415.2C288.1,426.7,275.8,432.4,260.7,428.9C245.8,425.3,236.5,415.7,231.4,401.1C225.3,383.6,238.2,359.2,257.9,353.8C268.9,350.8,279.4,352.6,288.8,359.2C290.5,360.4,292.1,361.6,293.9,363z"/>
    <path fill="#FFFFFF" d="M589.5,422.6C572.3,408,568.1,389.3,578.7,371.7C587.2,357.7,600.1,350.7,616.6,352.9C631.7,355,642.1,364.3,647.1,378.5C652.6,393.8,648.9,407.5,637.2,418.6C623.1,432,606.1,433.3,589.5,422.6z"/>
  </g>
</svg>
